<svg xmlns="http://www.w3.org/2000/svg" xmlns:xlink="http://www.w3.org/1999/xlink" width="64" height="64" viewBox="0 0 64 64" fill="none"><path     fill="#FFFFFF"  d="M0 52L0 12C0 5.37258 5.37258 0 12 0L52 0C58.6274 0 64 5.37258 64 12L64 52C64 58.6274 58.6274 64 52 64L12 64C5.37258 64 0 58.6274 0 52Z"></path><g ><path     fill="#000000"  d="M36.184 32.456L26.44 16.088L34.936 16.088L41.464 27.992L41.752 27.992L48.424 16.088L56.824 16.088L46.888 32.168L57.16 49.4L48.472 49.4L41.656 36.92L41.368 36.92L34.168 49.4L25.72 49.4L36.184 32.456Z"></path></g><g ><path     fill="#000000"  d="M31.72 43.064L31.72 49.4L10.696 49.4L10.696 16.088L31.048 16.088L31.048 22.424L17.992 22.424L17.992 29.288L30.088 29.288L30.088 35.384L17.992 35.384L17.992 43.064L31.72 43.064Z"></path></g></svg>