<svg width="18" height="18" viewBox="0 0 18 18" fill="none" xmlns="http://www.w3.org/2000/svg">
  <path
    fill="#fff"
    d="M0 12L0 0C0 0 0 0 0 0L12 0C15.3137 0 18 2.68629 18 6L18 12C18 15.3137 15.3137 18 12 18L6 18C2.68629 18 0 15.3137 0 12Z"
  />
  <g>
    <path
      fill="#000"
      d="M9.53125 13.6562Q9.53125 14.2578 9.21484 14.5312Q8.89844 14.8047 8.25 14.8047Q7.59375 14.8047 7.28125 14.5312Q6.96875 14.2578 6.96875 13.6562L6.96875 4.3125Q6.96875 3.88281 6.375 3.88281Q5.94531 3.88281 5.50391 4.01172Q5.0625 4.14062 4.70703 4.36328Q4.35156 4.58594 4.125 4.89453Q3.89844 5.20312 3.89844 5.5625Q3.89844 5.8125 3.96484 5.96094Q4.03125 6.10938 4.11719 6.18359Q4.20312 6.25781 4.29297 6.27734Q4.38281 6.29688 4.42188 6.29688Q4.61719 6.29688 4.74219 6.23047Q4.86719 6.16406 4.96875 6.08984Q5.07031 6.01562 5.16016 5.94922Q5.25 5.88281 5.36719 5.88281Q5.46094 5.88281 5.56641 5.92578Q5.67188 5.96875 5.76172 6.0625Q5.85156 6.15625 5.91406 6.30859Q5.97656 6.46094 5.97656 6.67969Q5.97656 6.99219 5.85547 7.21875Q5.73438 7.44531 5.54297 7.59766Q5.35156 7.75 5.10547 7.82422Q4.85938 7.89844 4.61719 7.89844Q4.24219 7.89844 3.94141 7.76953Q3.64062 7.64062 3.42969 7.41406Q3.21875 7.1875 3.10938 6.88281Q3 6.57812 3 6.23438Q3 5.58594 3.24219 5.08984Q3.48438 4.59375 3.92578 4.23438Q4.36719 3.875 4.98438 3.63672Q5.60156 3.39844 6.35156 3.25781Q7.10156 3.11719 7.95703 3.05859Q8.8125 3 9.73438 3Q11.9688 3 13.1172 3.85547Q14.2656 4.71094 14.2656 6.3125Q14.2656 7.09375 14.0586 7.69531Q13.8516 8.29688 13.5039 8.73047Q13.1562 9.16406 12.7031 9.43359Q12.25 9.70312 11.7656 9.82031Q11.2812 9.9375 10.793 9.91406Q10.3047 9.89062 9.88281 9.73438L9.99219 9.39844Q10.5781 9.57812 10.957 9.41016Q11.3359 9.24219 11.5508 8.8125Q11.7656 8.38281 11.8477 7.72656Q11.9297 7.07031 11.9297 6.28125Q11.9297 5.6875 11.8047 5.19922Q11.6797 4.71094 11.4648 4.36719Q11.25 4.02344 10.9648 3.83203Q10.6797 3.64062 10.3594 3.64062Q10.1094 3.64062 9.94922 3.71484Q9.78906 3.78906 9.69922 3.90234Q9.60938 4.01562 9.57422 4.14453Q9.53906 4.27344 9.53125 4.39062L9.53125 13.6562Z"
    />
  </g>
</svg>