<svg xmlns="http://www.w3.org/2000/svg" xmlns:xlink="http://www.w3.org/1999/xlink" width="183" height="36" viewBox="0 0 183 36" fill="none"><g  clip-path="url(#clip-path-40_6)"><g ><path     fill="#000000"  d="M27.392 1.338L27.392 34.65L20.144 34.65L20.144 19.914L6.992 19.914L6.992 34.65L-0.304 34.65L-0.304 1.338L6.992 1.338L6.992 13.818L20.144 13.818L20.144 1.338L27.392 1.338ZM55.28 26.394L41.744 26.394L38.864 34.65L31.28 34.65L43.712 1.338L53.504 1.338L65.84 34.65L58.112 34.65L55.28 26.394ZM53.168 20.346L48.848 7.722L48.272 7.722L43.856 20.346L53.168 20.346ZM68.48 28.122L84.896 7.914L84.848 7.626L69.392 7.626L69.392 1.338L93.872 1.338L93.872 7.626L77.264 28.026L77.264 28.314L95.12 28.314L95.12 34.65L68.48 34.65L68.48 28.122ZM121.808 28.314L121.808 34.65L100.784 34.65L100.784 1.338L121.136 1.338L121.136 7.674L108.08 7.674L108.08 14.538L120.176 14.538L120.176 20.634L108.08 20.634L108.08 28.314L121.808 28.314Z"></path></g><g ><path     fill="#2A82E4"  d="M139.738 6.01L139.738 29.05L136.762 29.05L136.762 6.01L139.738 6.01Z"></path></g><g ><path     fill="#000000"  d="M162.684 17.706L152.94 1.338L161.436 1.338L167.964 13.242L168.252 13.242L174.924 1.338L183.324 1.338L173.388 17.418L183.66 34.65L174.972 34.65L168.156 22.17L167.868 22.17L160.668 34.65L152.22 34.65L162.684 17.706Z"></path></g></g><defs><clipPath id="clip-path-40_6"><path d="M0 36L183 36L183 0L0 0L0 36Z" fill="white"/></clipPath></defs></svg>